<?xml version="1.0" standalone="no"?>
<!DOCTYPE svg PUBLIC "-//W3C//DTD SVG 20010904//EN"
 "http://www.w3.org/TR/2001/REC-SVG-20010904/DTD/svg10.dtd">
<svg version="1.0" xmlns="http://www.w3.org/2000/svg"
 width="1164.000000pt" height="556.000000pt" viewBox="0 0 1164.000000 556.000000"
 preserveAspectRatio="xMidYMid meet">
<metadata>
Created by potrace 1.16, written by Peter Selinger 2001-2019
</metadata>
<g transform="translate(0.000000,556.000000) scale(0.100000,-0.100000)"
fill="#000000" stroke="none">
<path d="M0 2780 l0 -2780 5820 0 5820 0 0 2780 0 2780 -2132 -1 c-1173 0
-2125 -4 -2115 -8 16 -6 16 -9 -7 -30 -22 -21 -29 -23 -51 -13 -15 7 -25 20
-25 32 l0 20 -3655 0 -3655 0 0 -2780z m7958 2569 c13 -17 34 -29 47 -29 51 0
74 -95 27 -115 -14 -6 -27 -25 -34 -48 -6 -20 -17 -42 -25 -48 -7 -7 -13 -32
-13 -59 0 -27 -5 -50 -11 -52 -14 -5 0 -38 16 -38 9 0 16 -18 21 -46 4 -26 15
-55 25 -65 13 -13 21 -45 28 -113 6 -52 15 -106 21 -121 6 -15 8 -30 5 -35 -3
-4 2 -14 11 -21 9 -7 29 -39 45 -71 31 -61 38 -67 83 -72 41 -4 59 -29 64 -88
6 -74 -5 -81 -91 -59 -37 10 -73 23 -79 29 -7 7 -17 12 -24 12 -7 0 -25 21
-40 48 -15 26 -30 49 -34 52 -15 12 -63 212 -77 318 -3 23 -9 42 -13 42 -14 0
-19 41 -8 71 8 24 7 33 -6 48 -22 24 -20 58 5 71 16 9 18 14 8 26 -6 8 -18 14
-26 14 -8 0 -22 18 -30 40 -11 28 -28 47 -58 65 -41 23 -44 28 -59 98 -19 83
-15 103 29 140 64 53 151 55 193 6z m1130 -3 c10 -10 13 -184 4 -190 -5 -3 -6
-20 -3 -38 5 -23 3 -36 -6 -43 -10 -7 -15 -44 -17 -130 -2 -66 -7 -135 -11
-152 -5 -21 -4 -33 3 -33 7 0 6 -8 -1 -24 -7 -13 -15 -22 -19 -20 -4 2 -5 -15
-3 -38 2 -24 0 -60 -6 -81 -5 -20 -7 -43 -2 -50 10 -16 9 -49 -2 -67 -5 -8
-12 -79 -16 -158 -5 -111 -10 -147 -23 -161 -11 -13 -16 -37 -16 -87 0 -62 -3
-72 -29 -102 -17 -18 -33 -46 -36 -63 -4 -16 -13 -29 -20 -29 -7 0 -27 -14
-44 -30 -23 -24 -36 -29 -56 -24 -14 3 -25 2 -25 -4 0 -12 -36 -23 -45 -13 -4
3 -12 6 -18 6 -6 0 -15 18 -18 40 -6 37 -4 42 31 75 21 19 50 43 65 54 24 17
26 23 21 59 -5 28 -2 47 9 64 18 27 17 124 -2 157 -6 10 -8 27 -6 37 3 10 -4
34 -16 52 -12 19 -21 41 -21 49 0 8 -13 35 -30 61 -16 26 -26 47 -22 47 4 0 3
4 -3 8 -13 9 -55 88 -55 102 0 6 -11 28 -25 48 -14 20 -25 42 -25 49 0 7 -13
26 -30 41 -16 16 -30 34 -30 40 0 6 -12 37 -27 69 -15 32 -26 64 -24 72 1 7
-2 10 -8 6 -6 -3 -11 -1 -11 4 0 6 -6 11 -13 11 -6 0 -18 15 -25 33 -7 17 -22
50 -32 72 -11 22 -20 51 -20 63 0 24 -35 61 -57 62 -6 0 -21 14 -33 30 l-22
30 23 24 c17 18 28 22 44 16 12 -4 29 -4 38 1 13 7 29 2 66 -22 27 -18 47 -38
44 -44 -2 -7 10 -25 26 -41 17 -16 31 -38 31 -49 0 -11 14 -47 30 -78 17 -32
30 -65 30 -73 0 -8 7 -14 15 -14 17 0 35 -30 36 -62 0 -20 1 -20 8 -5 5 15 11
11 28 -25 12 -24 25 -55 28 -69 4 -15 19 -36 35 -47 25 -19 30 -19 40 -6 9 10
23 13 45 8 26 -5 34 -1 48 20 9 14 17 40 17 58 1 18 8 51 16 73 19 51 28 153
14 170 -12 14 -3 45 12 45 6 0 8 7 4 15 -3 8 -2 15 3 15 4 0 6 11 3 25 -2 14
0 25 6 25 14 0 22 38 8 44 -7 3 -6 8 4 16 11 9 12 13 3 17 -17 6 -16 24 2 50
13 18 23 21 61 18 26 -2 49 -6 52 -9z m-1588 -293 c11 -36 20 -75 20 -87 0
-12 4 -26 9 -31 12 -13 31 -107 31 -153 0 -38 19 -101 47 -162 10 -19 19 -46
21 -59 2 -14 8 -33 13 -43 6 -11 7 -33 4 -49 -4 -17 -2 -35 4 -43 6 -7 10 -28
9 -47 0 -19 2 -48 6 -66 10 -42 -21 -76 -62 -67 -49 10 -52 13 -52 42 0 15 -4
32 -9 37 -10 11 -41 167 -41 208 0 15 -4 27 -10 27 -5 0 -9 10 -9 23 1 26 -25
152 -38 187 -6 14 -8 30 -6 37 2 6 -2 24 -10 40 -8 15 -15 44 -15 63 0 19 -6
55 -12 80 -6 25 -14 64 -17 87 -4 38 -2 43 23 56 43 22 69 0 94 -80z m-679
-13 c28 -16 56 -86 64 -165 4 -38 9 -88 12 -110 6 -48 13 -126 16 -176 1 -20
9 -44 16 -53 7 -9 13 -34 13 -55 0 -23 5 -45 14 -52 8 -6 14 -29 14 -50 0 -21
5 -41 10 -44 6 -3 10 -22 10 -41 0 -19 5 -56 12 -81 10 -43 10 -47 -12 -65
-16 -13 -36 -18 -59 -16 -36 3 -36 4 -54 73 -21 81 -53 225 -67 305 -5 30 -17
80 -25 110 -19 69 -41 169 -54 240 -5 30 -15 79 -20 109 -8 39 -8 57 0 67 13
16 82 19 110 4z m-396 -97 c9 -43 25 -114 35 -158 10 -44 37 -165 59 -270 23
-104 50 -224 60 -265 36 -140 40 -188 18 -202 -16 -10 -89 20 -119 49 -24 23
-28 24 -34 10 -4 -11 -17 -17 -35 -17 -26 0 -29 -3 -29 -34 0 -52 -19 -60
-165 -71 -38 -3 -74 -10 -79 -15 -30 -30 -116 5 -116 46 0 21 -20 39 -53 48
-15 3 -30 14 -33 24 -4 9 -14 35 -25 57 -10 22 -25 67 -34 100 -9 33 -23 83
-30 110 -8 28 -19 77 -26 110 -6 33 -22 105 -35 160 -12 55 -26 118 -29 140
-4 22 -13 65 -22 95 -14 50 -14 55 3 67 23 17 78 17 92 1 5 -7 12 -29 14 -48
3 -19 22 -107 43 -195 43 -183 53 -232 61 -295 4 -25 10 -49 14 -55 4 -5 11
-29 15 -52 3 -23 14 -63 24 -90 14 -41 22 -49 52 -56 26 -6 38 -16 46 -37 13
-34 34 -46 61 -34 16 7 41 11 107 17 17 2 41 9 54 16 12 7 32 11 42 8 17 -5
19 1 19 54 0 47 4 63 22 81 18 18 21 31 19 82 -2 63 -24 212 -41 281 -6 22
-13 54 -15 70 -9 60 -24 131 -40 185 -27 98 -29 114 -8 132 16 14 39 22 80 27
7 0 18 -31 28 -76z m-915 -57 c6 -8 10 -25 8 -38 -3 -26 -56 -45 -148 -54 -30
-3 -71 -10 -90 -16 -19 -7 -45 -11 -56 -9 -20 2 -21 0 -11 -37 15 -58 5 -76
-39 -69 -34 6 -36 5 -29 -16 12 -37 45 -217 50 -271 1 -21 8 -43 14 -49 6 -6
11 -27 11 -46 0 -20 7 -45 15 -55 8 -11 15 -32 15 -46 0 -15 7 -41 16 -58 8
-18 13 -40 10 -49 -3 -10 -2 -24 3 -32 7 -11 13 -10 33 3 34 23 57 4 62 -52 4
-51 10 -59 32 -41 9 7 30 14 48 15 17 2 78 10 135 18 118 18 134 13 129 -38
-3 -28 -7 -31 -63 -43 -33 -7 -66 -10 -74 -7 -7 2 -20 -1 -27 -7 -8 -6 -27 -9
-44 -6 -16 4 -32 2 -35 -3 -8 -13 -52 -13 -60 0 -5 8 -11 7 -20 0 -21 -18 -55
5 -55 37 0 15 -7 35 -16 45 -16 17 -18 17 -30 0 -19 -25 -46 -5 -60 44 -6 21
-15 51 -22 65 -6 15 -8 36 -5 47 3 12 -2 30 -10 42 l-15 22 -7 -22 c-4 -12 -1
-35 5 -51 16 -37 6 -67 -15 -49 -8 7 -15 24 -15 38 0 14 -7 33 -15 42 -14 16
-27 61 -44 160 -5 25 -11 52 -14 60 -15 37 -41 239 -32 249 3 3 14 0 24 -6 16
-10 20 -8 25 13 4 13 2 33 -4 44 -23 43 -1 94 32 74 20 -12 38 25 26 52 -12
25 3 54 27 54 7 0 25 6 40 14 15 8 34 12 41 9 8 -3 22 -1 32 3 14 7 142 28
193 33 9 0 22 -6 29 -13z m-2036 -38 c3 -13 8 -39 11 -58 3 -19 10 -55 15 -80
5 -25 12 -61 15 -80 4 -19 10 -44 14 -55 30 -73 46 -171 31 -180 -23 -15 -37
24 -56 155 -3 19 -9 44 -14 55 -5 11 -11 34 -13 50 -3 17 -15 65 -26 109 -26
97 -26 106 -1 106 12 0 21 -8 24 -22z m-1771 -82 c15 -4 27 -11 27 -15 0 -4
16 -13 35 -20 22 -8 45 -27 60 -51 14 -21 35 -40 50 -44 19 -5 31 -19 46 -52
11 -27 27 -48 39 -51 27 -7 25 -21 -2 -21 -29 -1 -128 -18 -148 -26 -13 -5
-110 -19 -210 -31 -14 -1 -32 -5 -40 -8 -41 -14 -154 -25 -176 -17 -19 7 -24
6 -24 -5 0 -27 -30 -14 -49 22 -13 26 -15 99 -2 107 5 4 16 27 25 52 8 25 27
55 41 66 14 10 25 26 25 34 0 8 10 14 24 14 13 0 29 6 35 14 6 8 24 16 39 19
15 4 45 10 66 14 49 10 103 10 139 -1z m3037 -101 c7 -9 14 -30 14 -48 1 -18
5 -38 9 -45 9 -14 27 -101 31 -147 2 -17 8 -41 15 -53 16 -31 10 -76 -11 -80
-17 -3 -27 16 -34 71 -11 82 -17 113 -26 124 -5 6 -13 33 -18 60 -5 26 -12 60
-16 75 -11 49 10 74 36 43z m-445 -98 c4 -18 5 -37 4 -42 -2 -6 3 -20 10 -33
7 -13 11 -36 9 -51 -1 -16 3 -36 10 -44 8 -9 12 -31 10 -49 -2 -21 3 -37 12
-45 9 -6 16 -30 17 -55 3 -67 15 -138 23 -138 5 0 11 -19 15 -42 3 -24 13 -58
22 -77 11 -24 13 -39 6 -50 -7 -11 -6 -23 4 -38 16 -24 14 -69 -2 -67 -5 1
-15 23 -21 50 -7 27 -17 62 -23 77 -6 16 -9 32 -6 37 3 4 1 21 -5 36 -5 16
-11 43 -13 59 -7 41 -16 81 -32 140 -27 99 -35 133 -35 157 0 14 -3 28 -7 32
-11 10 -40 150 -35 165 8 23 31 10 37 -22z m-2206 -103 c17 -14 31 -32 31 -39
0 -7 9 -24 20 -38 12 -14 20 -40 20 -61 0 -20 4 -36 9 -36 9 0 19 -57 24 -130
2 -19 6 -40 10 -47 4 -7 7 -27 6 -45 -1 -50 12 -252 18 -261 9 -14 -31 -87
-44 -82 -7 2 -13 0 -13 -5 0 -6 7 -10 15 -10 15 0 20 -12 9 -23 -10 -10 -53
15 -60 35 -3 10 -17 26 -31 35 -24 16 -26 16 -38 0 -16 -22 -68 -22 -90 -1 -9
9 -19 29 -22 45 -3 15 -11 30 -19 33 -7 3 -11 12 -8 21 3 8 -2 38 -11 67 -27
85 -35 114 -35 127 0 7 -9 26 -21 42 -13 19 -19 38 -15 52 4 15 -1 27 -14 37
-19 15 -19 16 -2 50 21 43 58 50 107 22 31 -19 34 -19 49 -3 13 15 16 90 5
181 -6 44 2 52 58 59 6 0 25 -11 42 -25z m-840 -161 c11 -9 18 -20 15 -25 -3
-4 0 -8 5 -8 6 0 11 -6 11 -14 0 -7 7 -19 15 -26 9 -7 14 -19 11 -27 -3 -8 1
-16 9 -19 14 -6 34 -41 49 -87 9 -27 23 -13 24 24 1 30 28 62 44 53 5 -3 8 1
8 8 0 12 63 38 93 38 20 0 61 -46 48 -55 -19 -11 -12 -33 19 -65 17 -17 30
-34 30 -39 0 -4 11 -20 25 -35 14 -15 25 -34 25 -42 0 -7 4 -14 9 -14 5 0 18
-24 30 -52 12 -29 29 -66 37 -81 14 -26 15 -38 1 -114 -1 -5 -15 -21 -31 -36
-24 -24 -34 -28 -65 -23 -20 3 -47 7 -60 8 -15 2 -31 15 -42 36 -19 33 -18 34
16 36 14 1 21 11 28 44 4 23 12 42 16 42 5 0 11 12 14 26 4 21 1 25 -14 21
-10 -3 -18 -2 -17 2 1 3 -5 18 -12 34 -9 18 -21 27 -37 27 -12 0 -25 0 -28 0
-14 1 -102 44 -116 56 -23 20 -28 4 -21 -63 3 -34 1 -53 -6 -53 -6 0 -5 -12 5
-30 8 -17 13 -37 10 -44 -3 -7 4 -18 14 -24 28 -18 23 -69 -7 -69 -13 0 -25 6
-28 14 -3 8 -10 12 -16 8 -5 -3 -12 5 -16 19 -3 13 -12 27 -19 30 -8 3 -17 21
-21 40 -3 20 -10 36 -15 36 -5 0 -9 9 -9 19 0 11 -4 22 -8 25 -4 3 -18 40 -31
83 -13 43 -29 92 -36 109 -7 17 -17 53 -21 79 -5 39 -3 56 17 96 13 27 25 49
26 49 2 0 12 -8 22 -17z m854 -856 c32 -36 32 -37 9 -68 -10 -13 -24 -39 -32
-58 -15 -38 -52 -81 -68 -81 -6 0 -18 -13 -27 -30 -17 -34 -75 -51 -106 -31
-11 6 -27 11 -36 11 -10 0 -27 7 -37 15 -11 8 -30 15 -43 15 -13 0 -29 10 -39
24 -8 14 -31 34 -49 45 -22 12 -35 30 -40 50 -9 41 2 74 22 66 9 -3 24 2 35
12 12 10 40 18 75 20 31 2 62 8 69 14 7 6 22 8 34 4 11 -4 20 -2 20 4 0 6 12
10 28 10 41 1 114 9 119 15 9 9 38 -8 66 -37z m2028 -365 c49 17 56 4 90 -159
19 -92 28 -131 47 -203 10 -41 24 -102 31 -135 7 -33 16 -74 22 -91 5 -17 9
-42 9 -55 0 -14 4 -29 9 -35 5 -5 11 -27 14 -49 8 -59 29 -135 38 -135 4 0 11
4 14 10 3 5 20 7 37 3 28 -6 30 -5 19 15 -6 11 -11 36 -11 54 0 19 -4 38 -9
44 -5 5 -12 27 -14 49 -3 22 -10 55 -16 74 -6 19 -8 38 -5 43 3 5 1 15 -5 22
-33 39 -13 109 25 88 11 -6 27 -5 45 2 38 14 53 -2 52 -51 -1 -21 5 -46 13
-57 8 -11 14 -35 14 -53 0 -17 5 -35 10 -38 6 -3 10 -23 10 -44 0 -20 4 -41 9
-46 6 -6 11 -29 12 -52 3 -45 8 -49 40 -33 13 7 25 7 38 0 22 -11 43 7 22 19
-6 4 -12 25 -14 47 -2 22 -9 49 -15 61 -7 12 -12 32 -12 45 0 13 -7 41 -14 63
-18 50 -9 61 61 68 58 7 73 -5 73 -56 0 -14 7 -41 15 -60 8 -20 12 -43 9 -52
-4 -8 -1 -22 5 -29 7 -8 13 -29 14 -48 2 -18 9 -44 16 -57 7 -13 11 -36 9 -53
-5 -33 6 -45 27 -28 9 7 28 10 45 6 30 -6 41 9 21 30 -5 5 -11 27 -14 49 -3
22 -10 58 -16 80 -6 25 -6 41 -1 43 6 2 3 10 -5 19 -20 20 -19 72 1 80 23 8
44 -22 44 -63 0 -36 24 -64 34 -39 9 25 45 18 57 -12 5 -14 8 -34 7 -43 -2 -9
2 -24 9 -32 7 -8 13 -30 14 -49 1 -19 8 -49 16 -67 8 -18 11 -42 8 -54 -5 -12
-2 -24 6 -29 7 -4 13 -25 14 -46 0 -21 4 -44 9 -51 4 -7 8 -30 9 -50 0 -20 6
-46 14 -57 17 -26 16 -50 -3 -66 -14 -11 -19 -10 -34 9 l-18 22 -7 -27 c-4
-16 -2 -29 5 -33 7 -4 13 -25 14 -46 2 -22 9 -52 15 -69 7 -16 10 -38 7 -48
-2 -10 2 -33 10 -52 13 -31 11 -65 -5 -65 -12 0 -28 15 -33 30 -4 11 -8 9 -17
-8 -9 -18 -10 -27 -1 -37 6 -8 13 -31 15 -52 1 -21 8 -51 14 -67 7 -16 9 -36
6 -44 -3 -7 2 -23 10 -35 33 -47 6 -103 -32 -68 -20 19 -21 19 -32 -5 -10 -24
-12 -24 -36 -8 -24 16 -27 16 -38 0 -10 -14 -18 -15 -39 -7 -20 7 -29 7 -38
-4 -9 -10 -18 -11 -37 -4 -17 6 -30 6 -39 -2 -7 -6 -22 -8 -34 -4 -12 4 -27 1
-35 -5 -8 -7 -24 -9 -36 -5 -12 4 -32 1 -45 -6 -17 -9 -27 -10 -35 -2 -8 8
-18 7 -37 -3 -44 -23 -52 -9 -78 141 -10 55 -11 57 -34 43 -39 -25 -66 20 -87
150 -6 39 -18 48 -40 31 -13 -11 -18 -10 -34 10 -11 13 -19 33 -19 45 0 11 -7
34 -15 50 -8 15 -15 42 -15 58 0 27 -2 29 -28 23 -33 -7 -50 8 -63 57 -32 121
-33 123 -61 120 -28 -3 -58 27 -58 60 0 12 -11 19 -35 24 -42 8 -48 18 -65
106 -15 74 -5 104 31 93 10 -3 27 0 38 7 29 18 53 1 67 -48 10 -35 14 -39 43
-39 36 0 48 -14 57 -67 6 -35 8 -37 43 -33 39 3 38 1 20 83 -5 23 -13 61 -18
85 -4 23 -11 49 -14 57 -4 8 -8 26 -11 40 -4 21 -37 170 -66 300 -5 19 -13 49
-18 67 -6 17 -8 34 -5 36 3 3 0 20 -5 39 -31 102 -42 149 -37 158 3 5 1 19 -6
31 -6 12 -18 52 -25 87 -12 59 -12 68 3 84 10 11 20 15 26 9 6 -6 20 -5 38 1z"/>
</g>
</svg>
